HIERARCHY
ROOT hip
{
  OFFSET 0 0 0
  CHANNELS 6 Xposition Yposition Zposition Zrotation Yrotation Xrotation
  JOINT abdomen
  {
    OFFSET 0 20.6881 -0.73152
    CHANNELS 3 Zrotation Xrotation Yrotation
    JOINT chest
    {
      OFFSET 0 11.7043 -0.48768
      CHANNELS 3 Zrotation Xrotation Yrotation
      JOINT neck
      {
        OFFSET 0 22.1894 -2.19456
        CHANNELS 3 Zrotation Xrotation Yrotation
        JOINT head
        {
          OFFSET -0.24384 7.07133 1.2192
          CHANNELS 3 Zrotation Xrotation Yrotation
          JOINT leftEye
          {
            OFFSET 4.14528 8.04674 8.04672
            CHANNELS 3 Zrotation Xrotation Yrotation
            End Site
            {
              OFFSET 1 0 0
            }
          }
          JOINT rightEye
          {
            OFFSET -3.6576 8.04674 8.04672
            CHANNELS 3 Zrotation Xrotation Yrotation
            End Site
            {
              OFFSET 1 0 0
            }
          }
        }
      }
      JOINT rCollar
      {
        OFFSET -2.68224 19.2634 -4.8768
        CHANNELS 3 Zrotation Xrotation Yrotation
        JOINT rShldr
        {
          OFFSET -8.77824 -1.95073 1.46304
          CHANNELS 3 Zrotation Xrotation Yrotation
          JOINT rForeArm
          {
            OFFSET -28.1742 -1.7115 0.48768
            CHANNELS 3 Zrotation Xrotation Yrotation
            JOINT rHand
            {
              OFFSET -22.5879 0.773209 7.07136
              CHANNELS 3 Zrotation Xrotation Yrotation
              JOINT rThumb1
              {
                OFFSET -1.2192 -0.487915 3.41376
                CHANNELS 3 Zrotation Xrotation Yrotation
                JOINT rThumb2
                {
                  OFFSET -3.37035 -0.52449 3.41376
                  CHANNELS 3 Zrotation Xrotation Yrotation
                  End Site
                  {
                    OFFSET -1.78271 -1.18214 1.43049
                  }
                }
              }
              JOINT rIndex1
              {
                OFFSET -7.75947 0.938293 5.60832
                CHANNELS 3 Zrotation Xrotation Yrotation
                JOINT rIndex2
                {
                  OFFSET -2.54057 -0.884171 1.56538
                  CHANNELS 3 Zrotation Xrotation Yrotation
                  End Site
                  {
                    OFFSET -1.62519 -0.234802 1.16502
                  }
                }
              }
              JOINT rMid1
              {
                OFFSET -8.24714 1.18213 3.41376
                CHANNELS 3 Zrotation Xrotation Yrotation
                JOINT rMid2
                {
                  OFFSET -3.10165 -0.590103 1.0647
                  CHANNELS 3 Zrotation Xrotation Yrotation
                  End Site
                  {
                    OFFSET -2.48547 -0.328903 0.83742
                  }
                }
              }
              JOINT rRing1
              {
                OFFSET -8.82822 0.546677 1.51678
                CHANNELS 3 Zrotation Xrotation Yrotation
                JOINT rRing2
                {
                  OFFSET -2.60934 -0.819778 -0.0198488
                  CHANNELS 3 Zrotation Xrotation Yrotation
                  End Site
                  {
                    OFFSET -2.33842 -0.294052 0.168128
                  }
                }
              }
              JOINT rPinky1
              {
                OFFSET -8.27202 -0.0477905 -0.4584
                CHANNELS 3 Zrotation Xrotation Yrotation
                JOINT rPinky2
                {
                  OFFSET -1.82734 -0.647385 -0.700984
                  CHANNELS 3 Zrotation Xrotation Yrotation
                  End Site
                  {
                    OFFSET -1.69225 -0.51767 -0.607171
                  }
                }
              }
            }
          }
        }
      }
      JOINT lCollar
      {
        OFFSET 2.68224 19.2634 -4.8768
        CHANNELS 3 Zrotation Xrotation Yrotation
        JOINT lShldr
        {
          OFFSET 8.77824 -1.95073 1.46304
          CHANNELS 3 Zrotation Xrotation Yrotation
          JOINT lForeArm
          {
            OFFSET 28.1742 -1.7115 0.48768
            CHANNELS 3 Zrotation Xrotation Yrotation
            JOINT lHand
            {
              OFFSET 22.5879 0.773209 7.07136
              CHANNELS 3 Zrotation Xrotation Yrotation
              JOINT lThumb1
              {
                OFFSET 1.2192 -0.487915 3.41376
                CHANNELS 3 Zrotation Xrotation Yrotation
                JOINT lThumb2
                {
                  OFFSET 3.37035 -0.52449 3.41376
                  CHANNELS 3 Zrotation Xrotation Yrotation
                  End Site
                  {
                    OFFSET 1.78271 -1.18214 1.43049
                  }
                }
              }
              JOINT lIndex1
              {
                OFFSET 7.75947 0.938293 5.60832
                CHANNELS 3 Zrotation Xrotation Yrotation
                JOINT lIndex2
                {
                  OFFSET 2.54057 -0.884171 1.56538
                  CHANNELS 3 Zrotation Xrotation Yrotation
                  End Site
                  {
                    OFFSET 1.62519 -0.234802 1.16502
                  }
                }
              }
              JOINT lMid1
              {
                OFFSET 8.24714 1.18213 3.41376
                CHANNELS 3 Zrotation Xrotation Yrotation
                JOINT lMid2
                {
                  OFFSET 3.10165 -0.590103 1.0647
                  CHANNELS 3 Zrotation Xrotation Yrotation
                  End Site
                  {
                    OFFSET 2.48547 -0.328903 0.83742
                  }
                }
              }
              JOINT lRing1
              {
                OFFSET 8.82822 0.546677 1.51678
                CHANNELS 3 Zrotation Xrotation Yrotation
                JOINT lRing2
                {
                  OFFSET 2.60934 -0.819778 -0.0198488
                  CHANNELS 3 Zrotation Xrotation Yrotation
                  End Site
                  {
                    OFFSET 2.33842 -0.294052 0.168128
                  }
                }
              }
              JOINT lPinky1
              {
                OFFSET 8.27202 -0.0477905 -0.4584
                CHANNELS 3 Zrotation Xrotation Yrotation
                JOINT lPinky2
                {
                  OFFSET 1.82734 -0.647385 -0.700984
                  CHANNELS 3 Zrotation Xrotation Yrotation
                  End Site
                  {
                    OFFSET 1.69225 -0.51767 -0.607171
                  }
                }
              }
            }
          }
        }
      }
    }
  }
  JOINT rButtock
  {
    OFFSET -8.77824 4.35084 1.2192
    CHANNELS 3 Zrotation Xrotation Yrotation
    JOINT rThigh
    {
      OFFSET 0 -1.70687 -2.19456
      CHANNELS 3 Zrotation Xrotation Yrotation
      JOINT rShin
      {
        OFFSET 0 -36.8199 0.73152
        CHANNELS 3 Zrotation Xrotation Yrotation
        JOINT rFoot
        {
          OFFSET 0.73152 -45.1104 -5.12064
          CHANNELS 3 Zrotation Xrotation Yrotation
          End Site
          {
            OFFSET -1.1221 -3.69964 12.103
          }
        }
      }
    }
  }
  JOINT lButtock
  {
    OFFSET 8.77824 4.35084 1.2192
    CHANNELS 3 Zrotation Xrotation Yrotation
    JOINT lThigh
    {
      OFFSET 0 -1.70687 -2.19456
      CHANNELS 3 Zrotation Xrotation Yrotation
      JOINT lShin
      {
        OFFSET 0 -36.8199 0.73152
        CHANNELS 3 Zrotation Xrotation Yrotation
        JOINT lFoot
        {
          OFFSET -0.73152 -45.1104 -5.12064
          CHANNELS 3 Zrotation Xrotation Yrotation
          End Site
          {
            OFFSET 1.1221 -3.69964 12.103
          }
        }
      }
    }
  }
}
MOTION
Frames:	8
Frame Time:	0.00833333
8.31997 84.9212 36.3448 -11.7947 -45.1744 16.9686 4.30658 0.897319 5.56336 -4.58081 -6.66023 1.34856 -13.5978 3.02075 -11.6289 2.43475 -19.6248 -19.5912 -0.0 0.0 0.0 -0.0 0.0 0.0 5.93726e-14 -2.0082e-13 -5.8029e-13 24.6248 -77.5462 52.492 -27.1065 -43.7217 90.8964 -0.00254001 -1.41913 -0.199484 2.35521e-09 6.80231e-10 -1.56138e-09 4.06865e-09 1.1748e-09 -2.70366e-09 2.35522e-09 6.80221e-10 -1.56139e-09 7.73091 5.47488 0.417314 2.35522e-09 6.80218e-10 -1.56138e-09 2.90554 0.965183 0.102902 2.35522e-09 6.80217e-10 -1.56139e-09 10.2786 0.731801 0.0259123 2.3552e-09 6.80219e-10 -1.56138e-09 2.22167 -0.733487 -0.20892 5.93057e-14 -2.00825e-13 -5.80551e-13 -56.0842 -18.9409 30.6221 13.1142 -6.2613 -23.7887 0.381348 17.2918 -2.50758 -9.27172e-10 -3.29499e-10 -2.5722e-09 -1.63596e-09 -5.79606e-10 -4.43408e-09 -9.27181e-10 -3.29502e-10 -2.57219e-09 -7.73091 5.47488 -0.417314 -9.27171e-10 -3.29506e-10 -2.57219e-09 -2.90554 0.965183 -0.102902 -9.27181e-10 -3.29505e-10 -2.57219e-09 -10.2786 0.731801 -0.0259123 -9.2717e-10 -3.29503e-10 -2.5722e-09 -2.22167 -0.733487 0.20892 -2.03217e-16 0.0 -3.88251e-19 9.81902 -14.6837 -6.47732 -0.053464 19.0082 0.329516 -2.75003 -6.92374 -13.7517 2.03217e-16 0.0 3.88251e-19 14.8286 -27.2501 -16.4273 0.478427 46.7351 -0.977078 -0.0545456 1.70564 -3.84513
7.64559 84.9354 36.2769 -11.9653 -45.3026 17.1166 4.38673 0.801245 5.79329 -4.65747 -6.6699 1.40862 -13.5718 3.09074 -11.6973 2.57198 -19.4887 -19.7205 -0.0 0.0 0.0 -0.0 0.0 0.0 -3.19817e-14 -5.7609e-13 -1.15758e-12 27.7717 -77.645 55.7439 -27.1578 -43.575 90.6097 -0.00175097 -1.15209 -0.161937 4.46728e-09 1.07501e-09 -3.44169e-09 7.71333e-09 1.85671e-09 -5.9548e-09 4.46729e-09 1.075e-09 -3.4417e-09 7.73091 5.47488 0.417314 4.46728e-09 1.075e-09 -3.44169e-09 2.90554 0.965183 0.102902 4.46728e-09 1.075e-09 -3.44169e-09 10.2786 0.731801 0.0259123 4.46728e-09 1.075e-09 -3.44169e-09 2.22167 -0.733487 -0.20892 -3.20608e-14 -5.76103e-13 -1.15787e-12 -56.7132 -18.4962 30.2275 13.2023 -6.32818 -23.963 0.376494 17.1856 -2.49121 -1.05561e-09 -3.223e-10 -4.46861e-09 -1.88273e-09 -5.76422e-10 -7.71058e-09 -1.05562e-09 -3.22304e-10 -4.46859e-09 -7.73091 5.47488 -0.417314 -1.05561e-09 -3.22308e-10 -4.46861e-09 -2.90554 0.965183 -0.102902 -1.05562e-09 -3.22306e-10 -4.4686e-09 -10.2786 0.731801 -0.0259123 -1.0556e-09 -3.22303e-10 -4.46861e-09 -2.22167 -0.733487 0.20892 -2.03217e-16 0.0 -3.88251e-19 10.3232 -14.2304 -6.45608 -0.050647 18.7062 0.324538 -2.77625 -7.06496 -13.6671 2.03217e-16 0.0 3.88251e-19 14.5111 -27.7987 -16.1603 0.474894 46.5332 -0.960562 -0.0504351 1.1682 -3.49255
6.97887 84.948 36.2093 -12.1341 -45.4516 17.269 4.46068 0.698382 6.04249 -4.74108 -6.67408 1.47359 -13.5515 3.15806 -11.7665 2.71341 -19.361 -19.8492 -0.0 0.0 0.0 -0.0 0.0 0.0 -1.14492e-13 -8.5556e-13 -1.52647e-12 30.6001 -77.5749 58.7019 -27.2167 -43.4067 90.277 -0.000876596 -0.845391 -0.118821 5.88827e-09 1.39149e-09 -4.85943e-09 1.01655e-08 2.40344e-09 -8.40704e-09 5.88828e-09 1.39148e-09 -4.85944e-09 7.73091 5.47488 0.417314 5.88828e-09 1.39147e-09 -4.85943e-09 2.90554 0.965183 0.102902 5.88828e-09 1.39147e-09 -4.85944e-09 10.2786 0.731801 0.0259123 5.88827e-09 1.39147e-09 -4.85943e-09 2.22167 -0.733487 -0.20892 -1.14565e-13 -8.55579e-13 -1.52677e-12 -57.3724 -18.0 29.7993 13.3051 -6.40716 -24.166 0.371897 17.0843 -2.47559 -1.06046e-09 -3.90079e-10 -5.84971e-09 -1.9096e-09 -7.01316e-10 -1.00984e-08 -1.06047e-09 -3.90082e-10 -5.8497e-09 -7.73091 5.47488 -0.417314 -1.06046e-09 -3.90087e-10 -5.84972e-09 -2.90554 0.965183 -0.102902 -1.06047e-09 -3.90085e-10 -5.84971e-09 -10.2786 0.731801 -0.0259123 -1.06046e-09 -3.90082e-10 -5.84972e-09 -2.22167 -0.733487 0.20892 -2.03217e-16 0.0 -3.88251e-19 10.8125 -13.7846 -6.42932 -0.0481184 18.4091 0.320165 -2.79985 -7.19991 -13.5712 2.03217e-16 0.0 3.88251e-19 14.1896 -28.3342 -15.8795 0.46873 46.2429 -0.941392 -0.0404107 0.643255 -3.16578
6.31845 84.9591 36.143 -12.3015 -45.6211 17.4269 4.52814 0.588675 6.31237 -4.83191 -6.67321 1.54376 -13.537 3.22265 -11.8371 2.85827 -19.2405 -19.9786 -0.0 0.0 0.0 -0.0 0.0 0.0 -2.01953e-13 -1.04755e-12 -1.63827e-12 32.9899 -77.3398 61.2454 -27.2797 -43.2179 89.9101 -0.000214494 -0.496669 -0.0698007 6.57908e-09 1.71398e-09 -5.90482e-09 1.13579e-08 2.96086e-09 -1.02179e-08 6.5791e-09 1.71398e-09 -5.90484e-09 7.73091 5.47488 0.417314 6.57909e-09 1.71397e-09 -5.90483e-09 2.90554 0.965183 0.102902 6.57909e-09 1.71397e-09 -5.90483e-09 10.2786 0.731801 0.0259123 6.57908e-09 1.71397e-09 -5.90482e-09 2.22167 -0.733487 -0.20892 -2.01988e-13 -1.04757e-12 -1.63854e-12 -58.0627 -17.4488 29.3349 13.4221 -6.49762 -24.3981 0.367616 16.9892 -2.46096 -8.33322e-10 -6.2331e-10 -6.81863e-09 -1.53102e-09 -1.11262e-09 -1.17778e-08 -8.33328e-10 -6.23312e-10 -6.81862e-09 -7.73091 5.47488 -0.417314 -8.33321e-10 -6.23316e-10 -6.81864e-09 -2.90554 0.965183 -0.102902 -8.33331e-10 -6.23315e-10 -6.81864e-09 -10.2786 0.731801 -0.0259123 -8.33312e-10 -6.23312e-10 -6.81865e-09 -2.22167 -0.733487 0.20892 -2.03217e-16 0.0 -3.88251e-19 11.2877 -13.346 -6.39522 -0.0458674 18.1158 0.316505 -2.82115 -7.32817 -13.4656 2.03217e-16 0.0 3.88251e-19 13.8633 -28.856 -15.5822 0.460099 45.861 -0.919766 -0.0253691 0.125988 -2.86299
5.66447 84.9689 36.0773 -12.4685 -45.8109 17.5909 4.58905 0.472245 6.60266 -4.92999 -6.66766 1.61906 -13.5283 3.2862 -11.9095 3.00817 -19.1276 -20.1096 -0.0 0.0 0.0 -0.0 0.0 0.0 -2.97519e-13 -1.20094e-12 -1.60927e-12 34.8875 -76.9518 63.3196 -27.3458 -43.0071 89.5092 -3.56003e-05 -0.106698 -0.014986 6.89216e-09 2.06055e-09 -6.80662e-09 1.18986e-08 3.56003e-09 -1.17821e-08 6.89219e-09 2.06055e-09 -6.80665e-09 7.73091 5.47488 0.417314 6.89216e-09 2.06055e-09 -6.80663e-09 2.90554 0.965183 0.102902 6.89217e-09 2.06055e-09 -6.80663e-09 10.2786 0.731801 0.0259123 6.89216e-09 2.06055e-09 -6.80663e-09 2.22167 -0.733487 -0.20892 -2.97494e-13 -1.20097e-12 -1.60949e-12 -58.7843 -16.8378 28.8323 13.553 -6.59915 -24.6593 0.363595 16.8994 -2.44717 -4.57541e-10 -9.77276e-10 -7.62024e-09 -8.93952e-10 -1.7335e-09 -1.31707e-08 -4.57541e-10 -9.77275e-10 -7.62022e-09 -7.73091 5.47488 -0.417314 -4.57539e-10 -9.77279e-10 -7.62025e-09 -2.90554 0.965183 -0.102902 -4.57548e-10 -9.77279e-10 -7.62024e-09 -10.2786 0.731801 -0.0259123 -4.57531e-10 -9.77277e-10 -7.62026e-09 -2.22167 -0.733487 0.20892 -2.03217e-16 0.0 -3.88251e-19 11.7483 -12.9141 -6.35458 -0.0438253 17.8258 0.313505 -2.84014 -7.44992 -13.351 2.03217e-16 0.0 3.88251e-19 13.5308 -29.3659 -15.2679 0.449371 45.3905 -0.895975 -0.00592318 -0.389309 -2.58113
5.01624 84.9777 36.0119 -12.6396 -46.0223 17.7642 4.64496 0.349226 6.91041 -5.03479 -6.65617 1.69884 -13.5259 3.34757 -11.9821 3.1634 -19.0246 -20.2385 -0.0 0.0 0.0 -0.0 0.0 0.0 -3.67785e-13 -1.26037e-12 -1.46178e-12 36.3005 -76.437 64.9375 -27.4191 -42.7688 89.054 -0.000248256 0.319813 0.0449576 6.65114e-09 2.22791e-09 -7.19029e-09 1.1483e-08 3.84944e-09 -1.24493e-08 6.65118e-09 2.22791e-09 -7.19032e-09 7.73091 5.47488 0.417314 6.65114e-09 2.22791e-09 -7.19029e-09 2.90554 0.965183 0.102902 6.65115e-09 2.22791e-09 -7.19029e-09 10.2786 0.731801 0.0259123 6.65114e-09 2.22791e-09 -7.19029e-09 2.22167 -0.733487 -0.20892 -3.67705e-13 -1.26039e-12 -1.46196e-12 -59.5261 -16.1741 28.3046 13.6978 -6.71277 -24.9489 0.359712 16.8123 -2.43378 -1.14544e-10 -1.28195e-09 -7.83886e-09 -3.05659e-10 -2.26532e-09 -1.35549e-08 -1.14538e-10 -1.28194e-09 -7.83884e-09 -7.73091 5.47488 -0.417314 -1.14541e-10 -1.28195e-09 -7.83887e-09 -2.90554 0.965183 -0.102902 -1.14548e-10 -1.28195e-09 -7.83887e-09 -10.2786 0.731801 -0.0259123 -1.14534e-10 -1.28195e-09 -7.83888e-09 -2.22167 -0.733487 0.20892 -2.03217e-16 0.0 -3.88251e-19 12.1927 -12.4902 -6.31091 -0.0420251 17.5419 0.310945 -2.85597 -7.56601 -13.2231 2.03217e-16 0.0 3.88251e-19 13.1958 -29.8631 -14.9417 0.436708 44.8364 -0.870031 0.0169408 -0.88713 -2.32623
4.37438 84.9851 35.9472 -12.8089 -46.2531 17.9439 4.69743 0.219755 7.23264 -5.14577 -6.63747 1.78245 -13.5301 3.40561 -12.0532 3.32421 -18.9341 -20.3616 -0.0 0.0 0.0 -0.0 0.0 0.0 -3.79348e-13 -1.17043e-12 -1.21815e-12 37.2703 -75.8188 66.1458 -27.5025 -42.497 88.5256 -0.000742687 0.778152 0.109369 5.67967e-09 2.01278e-09 -6.68127e-09 9.80632e-09 3.4776e-09 -1.15688e-08 5.67971e-09 2.01278e-09 -6.68131e-09 7.73091 5.47488 0.417314 5.67967e-09 2.01278e-09 -6.68127e-09 2.90554 0.965183 0.102902 5.67968e-09 2.01278e-09 -6.68127e-09 10.2786 0.731801 0.0259123 5.67967e-09 2.01278e-09 -6.68127e-09 2.22167 -0.733487 -0.20892 -3.79239e-13 -1.17046e-12 -1.2183e-12 -60.2776 -15.4651 27.7646 13.8568 -6.83947 -25.2664 0.35585 16.7251 -2.4204 1.42473e-11 -1.3673e-09 -7.05882e-09 -7.33981e-11 -2.40946e-09 -1.22082e-08 1.42568e-11 -1.36729e-09 -7.05881e-09 -7.73091 5.47488 -0.417314 1.42518e-11 -1.36729e-09 -7.05883e-09 -2.90554 0.965183 -0.102902 1.42454e-11 -1.36729e-09 -7.05883e-09 -10.2786 0.731801 -0.0259123 1.4257e-11 -1.3673e-09 -7.05885e-09 -2.22167 -0.733487 0.20892 -2.03217e-16 0.0 -3.88251e-19 12.6195 -12.0754 -6.26766 -0.040504 17.2668 0.308604 -2.86774 -7.67728 -13.0777 2.03217e-16 0.0 3.88251e-19 12.8617 -30.3466 -14.6087 0.422285 44.204 -0.841957 0.0417856 -1.35196 -2.10431
3.73929 84.9915 35.8832 -12.9807 -46.5033 18.1327 4.74619 0.0831688 7.57006 -5.26364 -6.61135 1.86997 -13.5414 3.46004 -12.1227 3.49143 -18.8563 -20.4785 -0.0 0.0 0.0 -0.0 0.0 0.0 -2.97004e-13 -8.19906e-13 -7.95386e-13 37.7974 -75.0937 66.9463 -27.5893 -42.1897 87.9442 -0.00185357 1.27027 0.178553 3.46366e-09 1.16041e-09 -4.66564e-09 5.98078e-09 2.00425e-09 -8.07674e-09 3.4637e-09 1.16042e-09 -4.66567e-09 7.73091 5.47488 0.417314 3.46366e-09 1.16042e-09 -4.66565e-09 2.90554 0.965183 0.102902 3.46367e-09 1.16042e-09 -4.66564e-09 10.2786 0.731801 0.0259123 3.46366e-09 1.16042e-09 -4.66564e-09 2.22167 -0.733487 -0.20892 -2.96907e-13 -8.1993e-13 -7.95544e-13 -61.0405 -14.7059 27.21 14.0296 -6.9786 -25.613 0.351918 16.6358 -2.40671 -1.11698e-10 -1.03097e-09 -4.51366e-09 -2.56551e-10 -1.81077e-09 -7.80412e-09 -1.11688e-10 -1.03096e-09 -4.51364e-09 -7.73091 5.47488 -0.417314 -1.11692e-10 -1.03097e-09 -4.51367e-09 -2.90554 0.965183 -0.102902 -1.11699e-10 -1.03097e-09 -4.51367e-09 -10.2786 0.731801 -0.0259123 -1.11689e-10 -1.03097e-09 -4.51368e-09 -2.22167 -0.733487 0.20892 -2.03217e-16 0.0 -3.88251e-19 13.029 -11.6688 -6.2233 -0.0392631 16.9982 0.306614 -2.87574 -7.78289 -12.9158 2.03217e-16 0.0 3.88251e-19 12.527 -30.8155 -14.267 0.406282 43.4859 -0.811976 0.0673112 -1.78203 -1.91726
